<?xml version="1.0" encoding="UTF-8"?>
<!DOCTYPE svg PUBLIC "-//W3C//DTD SVG 1.1//EN" "http://www.w3.org/Graphics/SVG/1.1/DTD/svg11.dtd">
<svg xmlns="http://www.w3.org/2000/svg" version="1.1" width="500px" height="753px" style="shape-rendering:geometricPrecision; text-rendering:geometricPrecision; image-rendering:optimizeQuality; fill-rule:evenodd; clip-rule:evenodd" xmlns:xlink="http://www.w3.org/1999/xlink">
<g><path style="opacity:1" fill="#474b6b" d="M -0.5,-0.5 C 166.167,-0.5 332.833,-0.5 499.5,-0.5C 499.5,250.5 499.5,501.5 499.5,752.5C 332.833,752.5 166.167,752.5 -0.5,752.5C -0.5,501.5 -0.5,250.5 -0.5,-0.5 Z"/></g>
<g><path style="opacity:1" fill="#fcf7ab" d="M 249.5,136.5 C 281.139,134.455 311.805,138.955 341.5,150C 344.925,154.408 345.425,159.241 343,164.5C 340.28,166.296 337.28,167.296 334,167.5C 317.989,161.469 301.489,157.302 284.5,155C 241.257,150.549 206.424,165.382 180,199.5C 161.878,227.909 157.212,258.576 166,291.5C 173.447,318.906 188.613,340.74 211.5,357C 232.65,367.533 254.983,371.2 278.5,368C 292.074,366.971 305.407,364.637 318.5,361C 324.125,358.521 329.458,355.521 334.5,352C 344.091,351.591 347.925,356.091 346,365.5C 324.074,381.782 299.408,389.115 272,387.5C 217.522,392.611 178.855,370.611 156,321.5C 142.26,287.535 140.26,252.869 150,217.5C 163.167,181.667 187.667,157.167 223.5,144C 232.072,140.752 240.739,138.252 249.5,136.5 Z"/></g>
<g><path style="opacity:1" fill="#fbf6aa" d="M 258.5,258.5 C 283.169,258.333 307.836,258.5 332.5,259C 337.247,258.622 340.747,260.455 343,264.5C 343.667,286.167 343.667,307.833 343,329.5C 342,331.833 341,334.167 340,336.5C 333.512,342.662 326.012,347.162 317.5,350C 291.534,359.884 264.868,362.551 237.5,358C 231.072,356.711 225.905,353.544 222,348.5C 221.333,345.167 221.333,341.833 222,338.5C 223.167,336 225,334.167 227.5,333C 237.771,334.652 248.104,336.318 258.5,338C 280.943,339.902 301.943,335.402 321.5,324.5C 322.499,308.848 322.833,293.181 322.5,277.5C 301.164,277.667 279.831,277.5 258.5,277C 252.828,274.232 250.994,269.732 253,263.5C 254.73,261.598 256.563,259.931 258.5,258.5 Z"/></g>
<g><path style="opacity:1" fill="#f9f9fa" d="M 78.5,395.5 C 89.2861,394.975 99.9528,395.808 110.5,398C 112.002,398.583 113.335,399.416 114.5,400.5C 114.167,401.5 113.5,402.167 112.5,402.5C 97.8997,396.049 83.2331,395.882 68.5,402C 59.6108,408.272 54.1108,416.772 52,427.5C 51.3333,439.5 51.3333,451.5 52,463.5C 55.8862,484.062 68.2195,494.395 89,494.5C 94.9144,494.43 100.748,493.764 106.5,492.5C 106.5,477.5 106.5,462.5 106.5,447.5C 101.156,447.666 95.8229,447.499 90.5,447C 90.0426,446.586 89.7093,446.086 89.5,445.5C 99.4778,444.501 109.478,444.168 119.5,444.5C 119.825,461.411 119.492,478.244 118.5,495C 108.929,495.358 99.4288,496.191 90,497.5C 63.296,498.162 45.9627,485.828 38,460.5C 32.8567,439.851 37.69,422.017 52.5,407C 60.277,400.917 68.9437,397.084 78.5,395.5 Z"/></g>
<g><path style="opacity:1" fill="#fafafb" d="M 301.5,441.5 C 301.783,442.289 302.283,442.956 303,443.5C 303.5,433.172 303.666,422.839 303.5,412.5C 304.036,404.964 308.036,400.631 315.5,399.5C 315.667,431.168 315.5,462.835 315,494.5C 311.27,495.46 307.437,495.793 303.5,495.5C 303.666,491.486 303.499,487.486 303,483.5C 292.003,498.244 278.837,500.411 263.5,490C 254.778,479.753 251.612,467.92 254,454.5C 260.543,433.646 274.043,426.812 294.5,434C 297.039,436.37 299.372,438.87 301.5,441.5 Z"/></g>
<g><path style="opacity:1" fill="#f5f5f7" d="M 354.5,430.5 C 373.992,429.384 384.992,438.384 387.5,457.5C 372.5,457.5 357.5,457.5 342.5,457.5C 342.144,465.238 342.644,472.905 344,480.5C 348.456,491.646 356.623,495.812 368.5,493C 376.218,490.116 381.885,484.95 385.5,477.5C 383.956,487.551 377.956,493.718 367.5,496C 351.632,497.982 339.799,492.149 332,478.5C 324.248,455.014 331.748,439.014 354.5,430.5 Z"/></g>
<g><path style="opacity:1" fill="#fbfcfc" d="M 454.5,441.5 C 455.472,458.786 455.806,476.12 455.5,493.5C 453.901,493.232 452.568,493.566 451.5,494.5C 448.833,494.5 446.167,494.5 443.5,494.5C 443.667,477.497 443.5,460.497 443,443.5C 441.641,437.97 438.141,435.303 432.5,435.5C 429.205,435.295 426.205,436.128 423.5,438C 420,441.5 416.5,445 413,448.5C 412.5,463.83 412.333,479.163 412.5,494.5C 408.5,494.5 404.5,494.5 400.5,494.5C 400.119,476.799 400.619,459.132 402,441.5C 404.463,437.198 407.963,434.198 412.5,432.5C 412.334,436.514 412.501,440.514 413,444.5C 413.717,443.956 414.217,443.289 414.5,442.5C 423.119,431.426 434.119,428.259 447.5,433C 451.143,434.805 453.476,437.638 454.5,441.5 Z"/></g>
<g><path style="opacity:1" fill="#70748d" d="M 303.5,412.5 C 303.666,422.839 303.5,433.172 303,443.5C 302.283,442.956 301.783,442.289 301.5,441.5C 302.167,431.833 302.833,422.167 303.5,412.5 Z"/></g>
<g><path style="opacity:1" fill="#9699ac" d="M 414.5,442.5 C 414.217,443.289 413.717,443.956 413,444.5C 412.501,440.514 412.334,436.514 412.5,432.5C 413.235,435.247 413.902,438.58 414.5,442.5 Z"/></g>
<g><path style="opacity:1" fill="#4b4f6e" d="M 354.5,433.5 C 369.948,432.036 376.615,439.036 374.5,454.5C 363.833,454.5 353.167,454.5 342.5,454.5C 343.178,445.463 347.178,438.463 354.5,433.5 Z"/></g>
<g><path style="opacity:1" fill="#5c5f7d" d="M 279.5,433.5 C 293.153,433.986 300.986,440.986 303,454.5C 303.972,463.306 303.306,471.973 301,480.5C 295.848,490.995 287.681,494.828 276.5,492C 270.945,488.382 267.778,483.215 267,476.5C 266.105,466.439 266.438,456.439 268,446.5C 269.589,440.083 273.423,435.749 279.5,433.5 Z"/></g>
<g><path style="opacity:1" fill="#f7f7f8" d="M 230.5,430.5 C 236.367,430.067 241.534,431.734 246,435.5C 247.82,443.669 244.653,447.502 236.5,447C 234.845,444.493 234.011,441.659 234,438.5C 231.503,436.522 228.669,436.022 225.5,437C 222.628,439.537 220.128,442.37 218,445.5C 217.5,462.163 217.333,478.83 217.5,495.5C 213.5,495.5 209.5,495.5 205.5,495.5C 205.333,478.163 205.5,460.83 206,443.5C 207.783,437.547 211.616,433.881 217.5,432.5C 217.336,435.187 217.503,437.854 218,440.5C 221.489,436.162 225.656,432.829 230.5,430.5 Z"/></g>
<g><path style="opacity:1" fill="#f2f2f5" d="M 284.5,452.5 C 285.978,454.645 287.312,456.979 288.5,459.5C 290.403,461.562 292.737,462.896 295.5,463.5C 289.8,465.034 286.3,468.7 285,474.5C 283.736,468.735 280.236,465.068 274.5,463.5C 277.07,462.298 279.57,460.965 282,459.5C 283.136,457.257 283.97,454.924 284.5,452.5 Z"/></g>
<g><path style="opacity:1" fill="#f7f7f8" d="M 151.5,430.5 C 159.813,429.752 167.813,430.918 175.5,434C 179.381,436.928 181.881,440.761 183,445.5C 183.333,460.167 183.667,474.833 184,489.5C 185.305,492.306 187.472,493.14 190.5,492C 192.037,490.89 192.703,489.39 192.5,487.5C 193.675,487.281 194.675,487.614 195.5,488.5C 191.258,496.862 184.924,498.696 176.5,494C 173.769,491.374 171.936,488.207 171,484.5C 164.218,493.831 155.051,497.664 143.5,496C 133.242,491.943 129.409,484.443 132,473.5C 136.659,465.083 143.826,460.583 153.5,460C 159.491,459.501 165.491,459.334 171.5,459.5C 171.666,453.824 171.499,448.157 171,442.5C 170.27,438.104 167.77,435.27 163.5,434C 156.991,432.241 151.491,433.741 147,438.5C 146.556,441.957 147.056,445.29 148.5,448.5C 148.61,450.374 147.944,451.874 146.5,453C 135.87,454.924 132.37,450.757 136,440.5C 140.304,435.793 145.47,432.459 151.5,430.5 Z"/></g>
<g><path style="opacity:1" fill="#555977" d="M 157.5,461.5 C 162.167,461.5 166.833,461.5 171.5,461.5C 171.666,467.176 171.499,472.843 171,478.5C 165.829,490.594 157.496,493.594 146,487.5C 140.562,474.477 144.396,465.811 157.5,461.5 Z"/></g>
<g><path style="opacity:1" fill="#676b86" d="M 454.5,441.5 C 455.117,441.611 455.617,441.944 456,442.5C 456.5,459.83 456.667,477.163 456.5,494.5C 454.833,494.5 453.167,494.5 451.5,494.5C 452.568,493.566 453.901,493.232 455.5,493.5C 455.806,476.12 455.472,458.786 454.5,441.5 Z"/></g>
<g><path style="opacity:1" fill="#f9f4a9" d="M 86.5,510.5 C 79.5,510.5 72.5,510.5 65.5,510.5C 65.5,530.167 65.5,549.833 65.5,569.5C 63.1667,569.5 60.8333,569.5 58.5,569.5C 58.5,549.833 58.5,530.167 58.5,510.5C 51.5,510.5 44.5,510.5 37.5,510.5C 45.3049,509.169 53.4716,508.502 62,508.5C 70.5284,508.502 78.6951,509.169 86.5,510.5 Z"/></g>
<g><path style="opacity:1" fill="#f9f5aa" d="M 275.5,509.5 C 277.833,509.5 280.167,509.5 282.5,509.5C 282.173,518.682 282.507,527.682 283.5,536.5C 284.263,537.268 285.263,537.768 286.5,538C 296.167,538.667 305.833,538.667 315.5,538C 316.442,528.335 316.775,518.835 316.5,509.5C 318.607,510.468 320.941,510.802 323.5,510.5C 323.5,530.167 323.5,549.833 323.5,569.5C 320.833,569.5 318.167,569.5 315.5,569.5C 315.5,559.833 315.5,550.167 315.5,540.5C 304.833,540.5 294.167,540.5 283.5,540.5C 283.5,550.167 283.5,559.833 283.5,569.5C 280.833,569.5 278.167,569.5 275.5,569.5C 275.5,549.5 275.5,529.5 275.5,509.5 Z"/></g>
<g><path style="opacity:1" fill="#a4a48b" d="M 453.5,510.5 C 453.56,509.957 453.893,509.624 454.5,509.5C 455.5,526.821 455.833,544.154 455.5,561.5C 454.833,544.5 454.167,527.5 453.5,510.5 Z"/></g>
<g><path style="opacity:1" fill="#fef9ab" d="M 240.5,509.5 C 242.488,529.139 243.155,549.139 242.5,569.5C 240.167,569.5 237.833,569.5 235.5,569.5C 235.333,551.164 235.5,532.83 236,514.5C 237.366,512.638 238.866,510.972 240.5,509.5 Z"/></g>
<g><path style="opacity:1" fill="#9f9e8e" d="M 316.5,509.5 C 319.167,509.5 321.833,509.5 324.5,509.5C 324.83,529.674 324.497,549.674 323.5,569.5C 323.5,549.833 323.5,530.167 323.5,510.5C 320.941,510.802 318.607,510.468 316.5,509.5 Z"/></g>
<g><path style="opacity:1" fill="#fcf7ab" d="M 453.5,510.5 C 454.167,527.5 454.833,544.5 455.5,561.5C 455.5,564.167 455.5,566.833 455.5,569.5C 453.167,569.5 450.833,569.5 448.5,569.5C 448.333,551.83 448.5,534.164 449,516.5C 449.792,513.894 451.292,511.894 453.5,510.5 Z"/></g>
<g><path style="opacity:1" fill="#d1cf9c" d="M 86.5,510.5 C 80.021,511.491 73.3543,511.824 66.5,511.5C 66.8303,531.007 66.497,550.341 65.5,569.5C 65.5,549.833 65.5,530.167 65.5,510.5C 72.5,510.5 79.5,510.5 86.5,510.5 Z"/></g>
<g><path style="opacity:1" fill="#c6c49b" d="M 275.5,509.5 C 277.948,508.527 280.615,508.194 283.5,508.5C 283.5,517.833 283.5,527.167 283.5,536.5C 282.507,527.682 282.173,518.682 282.5,509.5C 280.167,509.5 277.833,509.5 275.5,509.5 Z"/></g>
<g><path style="opacity:1" fill="#ece7a5" d="M 390.5,530.5 C 390.5,531.167 390.5,531.833 390.5,532.5C 389.053,533.134 388.387,534.301 388.5,536C 389.271,545.811 389.771,555.644 390,565.5C 390.708,566.381 391.542,567.047 392.5,567.5C 394.5,568.167 396.5,568.833 398.5,569.5C 394.818,569.665 391.152,569.499 387.5,569C 385.508,568.426 384.008,567.259 383,565.5C 382.5,554.505 382.333,543.505 382.5,532.5C 375.431,532.257 375.097,531.423 381.5,530C 386.374,520.438 389.374,520.604 390.5,530.5 Z"/></g>
<g><path style="opacity:1" fill="#f4efa8" d="M 126.5,529.5 C 131.705,529.134 136.705,529.967 141.5,532C 143.359,533.558 144.859,535.391 146,537.5C 146.333,547.167 146.667,556.833 147,566.5C 148.356,567.38 149.856,567.714 151.5,567.5C 151.281,566.325 151.614,565.325 152.5,564.5C 153.229,566.595 152.563,568.428 150.5,570C 144.047,571.55 140.213,569.05 139,562.5C 132.521,571.326 124.854,572.66 116,566.5C 111.529,556.63 114.696,550.464 125.5,548C 129.821,547.501 134.154,547.334 138.5,547.5C 138.666,543.486 138.499,539.486 138,535.5C 137.348,533.277 135.848,532.11 133.5,532C 126.233,530.275 123.233,532.942 124.5,540C 123.313,544.755 120.813,545.589 117,542.5C 115.622,538.102 116.788,534.602 120.5,532C 122.723,531.434 124.723,530.6 126.5,529.5 Z"/></g>
<g><path style="opacity:1" fill="#f5f0a9" d="M 152.5,531.5 C 155.23,530.183 158.063,530.183 161,531.5C 164.805,541.248 168.805,550.914 173,560.5C 176.724,550.719 180.724,541.052 185,531.5C 185.654,530.304 186.154,530.304 186.5,531.5C 182.076,544.929 176.91,557.929 171,570.5C 169.347,570.18 168.347,569.18 168,567.5C 163.057,555.294 157.891,543.294 152.5,531.5 Z"/></g>
<g><path style="opacity:1" fill="#f4efa8" d="M 202.5,530.5 C 208.245,530.211 213.912,530.711 219.5,532C 224.395,535.623 226.728,540.456 226.5,546.5C 217.167,546.5 207.833,546.5 198.5,546.5C 197.677,554.254 199.677,561.087 204.5,567C 214.476,570.29 221.476,567.123 225.5,557.5C 225.833,558 226.167,558.5 226.5,559C 224.636,563.424 221.636,566.757 217.5,569C 198.436,571.936 189.602,563.77 191,544.5C 193.203,538.39 197.036,533.724 202.5,530.5 Z"/></g>
<g><path style="opacity:1" fill="#9a9a89" d="M 390.5,530.5 C 402.5,531.167 402.5,531.833 390.5,532.5C 390.5,531.833 390.5,531.167 390.5,530.5 Z"/></g>
<g><path style="opacity:1" fill="#5c5f7a" d="M 205.5,531.5 C 215.094,530.427 219.428,534.761 218.5,544.5C 212.167,544.5 205.833,544.5 199.5,544.5C 199.584,539.328 201.584,534.995 205.5,531.5 Z"/></g>
<g><path style="opacity:1" fill="#f6f1a9" d="M 348.5,529.5 C 367.297,529.794 374.797,539.128 371,557.5C 365.413,569.576 356.413,572.909 344,567.5C 333.198,560.591 330.531,551.258 336,539.5C 338.887,534.434 343.054,531.101 348.5,529.5 Z"/></g>
<g><path style="opacity:1" fill="#f2eda8" d="M 419.5,529.5 C 431.27,528.614 437.937,533.948 439.5,545.5C 430.494,545.334 421.494,545.5 412.5,546C 410.539,554.156 412.206,561.489 417.5,568C 426.992,570.419 433.658,567.252 437.5,558.5C 437.833,559.167 438.167,559.833 438.5,560.5C 431.74,571.139 422.74,573.306 411.5,567C 400.897,555.684 400.897,544.351 411.5,533C 414.158,531.522 416.825,530.355 419.5,529.5 Z"/></g>
<g><path style="opacity:1" fill="#4f526f" d="M 418.5,531.5 C 427.803,530.803 432.136,535.136 431.5,544.5C 425.167,544.5 418.833,544.5 412.5,544.5C 412.091,538.988 414.091,534.655 418.5,531.5 Z"/></g>
<g><path style="opacity:1" fill="#f0eca5" d="M 99.5,529.5 C 104.471,528.684 107.805,530.517 109.5,535C 108.661,539.534 106.161,541.034 102,539.5C 102.145,533.579 99.6447,532.079 94.5,535C 93.7894,536.255 92.956,537.421 92,538.5C 91.5002,548.828 91.3335,559.161 91.5,569.5C 88.8333,569.5 86.1667,569.5 83.5,569.5C 83.0666,558.09 83.5666,546.756 85,535.5C 86.8153,533.595 88.8153,531.928 91,530.5C 91.3333,532.167 91.6667,533.833 92,535.5C 94.6877,533.636 97.1877,531.636 99.5,529.5 Z"/></g>
<g><path style="opacity:1" fill="#5f627d" d="M 348.5,531.5 C 360.674,531.096 366.007,537.096 364.5,549.5C 364.555,555.236 363.222,560.569 360.5,565.5C 355.663,569.307 350.663,569.473 345.5,566C 344.54,564.581 343.707,563.081 343,561.5C 340.394,552.174 341.061,543.174 345,534.5C 346.518,533.837 347.685,532.837 348.5,531.5 Z"/></g>
<g><path style="opacity:1" fill="#f3efa8" d="M 352.5,543.5 C 353.626,546.788 355.96,548.955 359.5,550C 356,550.833 353.833,553 353,556.5C 352.14,552.973 349.973,550.807 346.5,550C 350.094,549.242 352.094,547.075 352.5,543.5 Z"/></g>
<g><path style="opacity:1" fill="#555877" d="M 130.5,549.5 C 133.167,549.5 135.833,549.5 138.5,549.5C 138.5,552.167 138.5,554.833 138.5,557.5C 136.501,565.833 131.501,568.333 123.5,565C 120.407,559.232 121.407,554.232 126.5,550C 127.793,549.51 129.127,549.343 130.5,549.5 Z"/></g>
<g><path style="opacity:1" fill="#b4b394" d="M 130.5,549.5 C 133.287,548.523 136.287,548.19 139.5,548.5C 139.81,551.713 139.477,554.713 138.5,557.5C 138.5,554.833 138.5,552.167 138.5,549.5C 135.833,549.5 133.167,549.5 130.5,549.5 Z"/></g>
<g><path style="opacity:1" fill="#c1bf96" d="M 37.5,510.5 C 44.5,510.5 51.5,510.5 58.5,510.5C 58.5,530.167 58.5,549.833 58.5,569.5C 57.503,550.341 57.1697,531.007 57.5,511.5C 50.6457,511.824 43.979,511.491 37.5,510.5 Z"/></g>
<g><path style="opacity:1" fill="#999889" d="M 392.5,567.5 C 395.187,567.336 397.854,567.503 400.5,568C 399.956,568.717 399.289,569.217 398.5,569.5C 396.5,568.833 394.5,568.167 392.5,567.5 Z"/></g>
<g><path style="opacity:1" fill="#5e617b" d="M 376.5,595.5 C 376.649,594.448 376.483,593.448 376,592.5C 374.414,591.624 372.914,590.624 371.5,589.5C 372.833,588.833 374.167,588.167 375.5,587.5C 372.493,585.9 370.159,586.567 368.5,589.5C 369.973,591.395 371.64,593.061 373.5,594.5C 371.905,595.434 370.239,595.434 368.5,594.5C 365.998,586.39 368.832,583.723 377,586.5C 377.339,589.036 377.839,591.536 378.5,594C 378.164,595.03 377.497,595.53 376.5,595.5 Z"/></g>
<g><path style="opacity:1" fill="#68697c" d="M 78.5,587.5 C 77.0673,590.038 75.734,592.705 74.5,595.5C 73.914,595.291 73.414,594.957 73,594.5C 71.6299,585.458 70.7965,585.791 70.5,595.5C 68.6122,593.012 67.9455,590.012 68.5,586.5C 72.0419,586.187 75.3752,586.521 78.5,587.5 Z"/></g>
<g><path style="opacity:1" fill="#ece8a6" d="M 58.5,588.5 C 60.6282,587.371 62.9615,587.204 65.5,588C 63.6787,590.456 63.012,593.289 63.5,596.5C 62.5,596.5 61.5,596.5 60.5,596.5C 61.0356,593.302 60.369,590.635 58.5,588.5 Z"/></g>
<g><path style="opacity:1" fill="#f4efa8" d="M 78.5,587.5 C 78.6641,590.187 78.4974,592.854 78,595.5C 75.506,598.086 73.006,598.086 70.5,595.5C 70.7965,585.791 71.6299,585.458 73,594.5C 73.414,594.957 73.914,595.291 74.5,595.5C 75.734,592.705 77.0673,590.038 78.5,587.5 Z"/></g>
<g><path style="opacity:1" fill="#e1dda2" d="M 88.5,586.5 C 91.2469,586.187 93.9135,586.52 96.5,587.5C 95.1777,590.612 93.8444,593.612 92.5,596.5C 91.52,593.914 91.1866,591.247 91.5,588.5C 89.8212,588.715 88.8212,588.048 88.5,586.5 Z"/></g>
<g><path style="opacity:1" fill="#e7e3a4" d="M 100.5,587.5 C 109.329,585.653 111.662,588.653 107.5,596.5C 105.494,591.452 104.161,591.452 103.5,596.5C 102.5,596.5 101.5,596.5 100.5,596.5C 100.5,593.5 100.5,590.5 100.5,587.5 Z"/></g>
<g><path style="opacity:1" fill="#e7e3a4" d="M 116.5,586.5 C 118.017,586.511 119.184,587.177 120,588.5C 120.635,590.618 121.469,592.618 122.5,594.5C 122.167,595.167 121.833,595.833 121.5,596.5C 119.132,593.986 116.799,593.986 114.5,596.5C 114.167,595.833 113.833,595.167 113.5,594.5C 114.122,591.626 115.122,588.96 116.5,586.5 Z"/></g>
<g><path style="opacity:1" fill="#e0dca2" d="M 133.5,586.5 C 134.777,587.694 135.444,589.36 135.5,591.5C 135.167,593.167 134.833,594.833 134.5,596.5C 132.541,595.252 131.041,593.585 130,591.5C 129.506,593.134 129.34,594.801 129.5,596.5C 128.5,596.5 127.5,596.5 126.5,596.5C 126.5,593.5 126.5,590.5 126.5,587.5C 129.642,587.799 131.809,589.466 133,592.5C 133.495,590.527 133.662,588.527 133.5,586.5 Z"/></g>
<g><path style="opacity:1" fill="#dfdba1" d="M 155.5,586.5 C 156.317,588.969 156.817,591.635 157,594.5C 158.011,595.337 159.178,595.67 160.5,595.5C 160.336,592.813 160.503,590.146 161,587.5C 161.667,586.167 162.333,586.167 163,587.5C 164.967,595.786 162.301,598.12 155,594.5C 154.278,591.739 154.445,589.073 155.5,586.5 Z"/></g>
<g><path style="opacity:1" fill="#fefaab" d="M 168.5,587.5 C 169.765,588.514 170.431,590.014 170.5,592C 170.167,593.5 169.833,595 169.5,596.5C 168.516,593.572 168.183,590.572 168.5,587.5 Z"/></g>
<g><path style="opacity:1" fill="#ebe8a6" d="M 175.5,587.5 C 176.5,587.5 177.5,587.5 178.5,587.5C 178.5,590.167 178.5,592.833 178.5,595.5C 179.873,595.343 181.207,595.51 182.5,596C 180.19,596.497 177.857,596.663 175.5,596.5C 175.5,593.5 175.5,590.5 175.5,587.5 Z"/></g>
<g><path style="opacity:1" fill="#f4f0a8" d="M 194.5,587.5 C 196.857,587.337 199.19,587.503 201.5,588C 204.167,590.667 204.167,593.333 201.5,596C 199.19,596.497 196.857,596.663 194.5,596.5C 194.5,593.5 194.5,590.5 194.5,587.5 Z"/></g>
<g><path style="opacity:1" fill="#f6f1a9" d="M 247.5,588.5 C 246.167,588.5 244.833,588.5 243.5,588.5C 243.5,589.5 243.5,590.5 243.5,591.5C 244.833,591.5 246.167,591.5 247.5,591.5C 246.432,592.434 245.099,592.768 243.5,592.5C 243.5,593.5 243.5,594.5 243.5,595.5C 244.873,595.343 246.207,595.51 247.5,596C 245.527,596.495 243.527,596.662 241.5,596.5C 241.335,593.482 241.502,590.482 242,587.5C 244.339,585.922 246.172,586.255 247.5,588.5 Z"/></g>
<g><path style="opacity:1" fill="#f7f2a9" d="M 274.5,587.5 C 275.793,589.296 277.293,590.963 279,592.5C 279.333,590.833 279.667,589.167 280,587.5C 281.392,590.278 281.892,593.278 281.5,596.5C 278.615,595.455 276.448,593.455 275,590.5C 274.809,592.708 274.309,594.708 273.5,596.5C 273.19,593.287 273.523,590.287 274.5,587.5 Z"/></g>
<g><path style="opacity:1" fill="#f5f0a9" d="M 294.5,587.5 C 294.664,590.187 294.497,592.854 294,595.5C 292.301,596.406 290.467,596.739 288.5,596.5C 286.404,593.809 286.07,590.809 287.5,587.5C 288.314,589.766 288.814,592.1 289,594.5C 290,595.833 291,595.833 292,594.5C 292.182,591.774 292.682,589.107 293.5,586.5C 294.107,586.624 294.44,586.957 294.5,587.5 Z"/></g>
<g><path style="opacity:1" fill="#e3dfa4" d="M 300.5,586.5 C 306.697,586.325 307.363,587.325 302.5,589.5C 307.694,591.058 307.694,592.058 302.5,592.5C 302.5,593.5 302.5,594.5 302.5,595.5C 303.873,595.343 305.207,595.51 306.5,596C 304.19,596.497 301.857,596.663 299.5,596.5C 299.342,593.098 299.676,589.764 300.5,586.5 Z"/></g>
<g><path style="opacity:1" fill="#e4e1a4" d="M 312.5,586.5 C 314.977,586.051 316.977,586.717 318.5,588.5C 317.005,588.478 315.338,588.811 313.5,589.5C 315.678,590.657 317.678,591.99 319.5,593.5C 317.625,597.684 314.959,598.351 311.5,595.5C 313.117,595.331 314.784,594.997 316.5,594.5C 315.086,593.376 313.586,592.376 312,591.5C 311.36,589.735 311.527,588.068 312.5,586.5 Z"/></g>
<g><path style="opacity:1" fill="#e4e0a4" d="M 322.5,586.5 C 325.32,586.248 327.986,586.748 330.5,588C 328.679,590.456 328.012,593.289 328.5,596.5C 327.5,596.5 326.5,596.5 325.5,596.5C 325.5,593.833 325.5,591.167 325.5,588.5C 323.821,588.715 322.821,588.048 322.5,586.5 Z"/></g>
<g><path style="opacity:1" fill="#e8e4a5" d="M 335.5,586.5 C 337.861,586.674 340.194,587.007 342.5,587.5C 342.817,590.572 342.484,593.572 341.5,596.5C 339.494,591.452 338.161,591.452 337.5,596.5C 336.5,596.5 335.5,596.5 334.5,596.5C 334.253,593.061 334.586,589.728 335.5,586.5 Z"/></g>
<g><path style="opacity:1" fill="#ede9a7" d="M 387.5,586.5 C 386.665,587.943 385.332,588.943 383.5,589.5C 388.694,591.058 388.694,592.058 383.5,592.5C 383.5,593.5 383.5,594.5 383.5,595.5C 385.199,595.34 386.866,595.506 388.5,596C 386.19,596.497 383.857,596.663 381.5,596.5C 381.5,593.5 381.5,590.5 381.5,587.5C 383.265,586.539 385.265,586.205 387.5,586.5 Z"/></g>
<g><path style="opacity:1" fill="#ece8a6" d="M 393.5,586.5 C 395.527,586.338 397.527,586.505 399.5,587C 400.059,587.725 400.392,588.558 400.5,589.5C 400.289,591.774 399.955,594.107 399.5,596.5C 397.494,591.452 396.161,591.452 395.5,596.5C 394.5,596.5 393.5,596.5 392.5,596.5C 392.253,593.061 392.586,589.728 393.5,586.5 Z"/></g>
<g><path style="opacity:1" fill="#fef9ac" d="M 418.5,587.5 C 419.765,588.514 420.431,590.014 420.5,592C 420.167,593.5 419.833,595 419.5,596.5C 418.516,593.572 418.183,590.572 418.5,587.5 Z"/></g>
<g><path style="opacity:1" fill="#68697c" d="M 103.5,588.5 C 104.5,588.5 105.5,588.5 106.5,588.5C 106.5,589.5 106.5,590.5 106.5,591.5C 105.5,591.5 104.5,591.5 103.5,591.5C 103.5,590.5 103.5,589.5 103.5,588.5 Z"/></g>
<g><path style="opacity:1" fill="#e8e3a4" d="M 142.5,587.5 C 144.792,587.244 146.959,587.577 149,588.5C 149.498,591.482 149.665,594.482 149.5,597.5C 146.794,597.425 144.127,597.092 141.5,596.5C 139.9,593.2 140.233,590.2 142.5,587.5 Z"/></g>
<g><path style="opacity:1" fill="#e2dea3" d="M 187.5,586.5 C 188.117,586.611 188.617,586.944 189,587.5C 189.821,590.554 189.655,593.554 188.5,596.5C 187.914,596.291 187.414,595.957 187,595.5C 186.264,592.408 186.431,589.408 187.5,586.5 Z"/></g>
<g><path style="opacity:1" fill="#ebe7a6" d="M 209.5,587.5 C 210.978,587.238 212.311,587.571 213.5,588.5C 214.305,590.915 215.305,593.249 216.5,595.5C 213.111,594.193 209.778,594.193 206.5,595.5C 207.809,592.917 208.809,590.25 209.5,587.5 Z"/></g>
<g><path style="opacity:1" fill="#f2eea8" d="M 220.5,587.5 C 228.773,585.938 231.106,588.771 227.5,596C 225.19,596.497 222.857,596.663 220.5,596.5C 220.5,593.5 220.5,590.5 220.5,587.5 Z"/></g>
<g><path style="opacity:1" fill="#5c5e7a" d="M 223.5,588.5 C 224.5,588.5 225.5,588.5 226.5,588.5C 226.795,590.735 226.461,592.735 225.5,594.5C 223.692,593.082 223.025,591.082 223.5,588.5 Z"/></g>
<g><path style="opacity:1" fill="#a8a792" d="M 223.5,588.5 C 223.025,591.082 223.692,593.082 225.5,594.5C 224.791,595.404 223.791,595.737 222.5,595.5C 222.198,592.941 222.532,590.607 223.5,588.5 Z"/></g>
<g><path style="opacity:1" fill="#999989" d="M 274.5,587.5 C 273.523,590.287 273.19,593.287 273.5,596.5C 272.194,593.313 272.194,589.98 273.5,586.5C 274.107,586.624 274.44,586.957 274.5,587.5 Z"/></g>
<g><path style="opacity:1" fill="#696c80" d="M 337.5,588.5 C 340.957,588.667 341.29,589.667 338.5,591.5C 337.614,590.675 337.281,589.675 337.5,588.5 Z"/></g>
<g><path style="opacity:1" fill="#f5f1a9" d="M 351.5,586.5 C 356.151,587.174 357.651,589.841 356,594.5C 349.479,597.995 346.813,595.995 348,588.5C 349.302,587.915 350.469,587.249 351.5,586.5 Z"/></g>
<g><path style="opacity:1" fill="#757683" d="M 350.5,588.5 C 354.473,589.075 355.473,591.242 353.5,595C 349.631,594.492 348.631,592.325 350.5,588.5 Z"/></g>
<g><path style="opacity:1" fill="#ede9a7" d="M 376.5,595.5 C 373.385,597.177 370.718,596.844 368.5,594.5C 370.239,595.434 371.905,595.434 373.5,594.5C 371.64,593.061 369.973,591.395 368.5,589.5C 370.159,586.567 372.493,585.9 375.5,587.5C 374.167,588.167 372.833,588.833 371.5,589.5C 372.914,590.624 374.414,591.624 376,592.5C 376.483,593.448 376.649,594.448 376.5,595.5 Z"/></g>
<g><path style="opacity:1" fill="#e6e3a5" d="M 438.5,587.5 C 439.5,587.5 440.5,587.5 441.5,587.5C 441.664,590.187 441.497,592.854 441,595.5C 440.586,595.957 440.086,596.291 439.5,596.5C 438.516,593.572 438.183,590.572 438.5,587.5 Z"/></g>
<g><path style="opacity:1" fill="#e1dda3" d="M 448.5,586.5 C 454.178,586.157 456.344,588.824 455,594.5C 451.932,598.388 448.932,598.388 446,594.5C 445.018,591.225 445.851,588.559 448.5,586.5 Z"/></g>
<g><path style="opacity:1" fill="#97978c" d="M 197.5,588.5 C 197.025,591.082 197.692,593.082 199.5,594.5C 198.791,595.404 197.791,595.737 196.5,595.5C 196.198,592.941 196.532,590.607 197.5,588.5 Z"/></g>
<g><path style="opacity:1" fill="#5b5e79" d="M 197.5,588.5 C 198.496,588.414 199.329,588.748 200,589.5C 200.78,591.387 200.613,593.054 199.5,594.5C 197.692,593.082 197.025,591.082 197.5,588.5 Z"/></g>
<g><path style="opacity:1" fill="#e4e0a4" d="M 427.5,587.5 C 429.527,587.338 431.527,587.505 433.5,588C 429.057,588.084 427.39,590.084 428.5,594C 430.256,594.202 431.922,594.702 433.5,595.5C 430.785,598.21 428.285,597.877 426,594.5C 425.167,591.829 425.667,589.496 427.5,587.5 Z"/></g>
<g><path style="opacity:1" fill="#63667f" d="M 449.5,588.5 C 451.722,588.559 452.722,589.725 452.5,592C 452.612,593.662 451.946,594.829 450.5,595.5C 448.636,593.288 448.303,590.955 449.5,588.5 Z"/></g>
<g><path style="opacity:1" fill="#b3b295" d="M 247.5,588.5 C 246.737,589.268 245.737,589.768 244.5,590C 245.737,590.232 246.737,590.732 247.5,591.5C 246.167,591.5 244.833,591.5 243.5,591.5C 243.5,590.5 243.5,589.5 243.5,588.5C 244.833,588.5 246.167,588.5 247.5,588.5 Z"/></g>
<g><path style="opacity:1" fill="#9b9a8f" d="M 394.5,588.5 C 395.978,588.238 397.311,588.571 398.5,589.5C 397.68,591.111 396.346,591.778 394.5,591.5C 394.5,590.5 394.5,589.5 394.5,588.5 Z"/></g>
<g><path style="opacity:1" fill="#878786" d="M 117.5,589.5 C 120.459,592.271 120.126,593.271 116.5,592.5C 117.127,591.583 117.461,590.583 117.5,589.5 Z"/></g>
<g><path style="opacity:1" fill="#5e607a" d="M 144.5,588.5 C 146.722,588.559 147.722,589.725 147.5,592C 145.815,596.407 144.482,596.407 143.5,592C 143.648,590.744 143.982,589.577 144.5,588.5 Z"/></g>
<g><path style="opacity:1" fill="#908f8a" d="M 210.5,589.5 C 212.104,590.287 212.771,591.62 212.5,593.5C 211.325,593.719 210.325,593.386 209.5,592.5C 210.127,591.583 210.461,590.583 210.5,589.5 Z"/></g>
<g><path style="opacity:1" fill="#e5e1a4" d="M 254.5,586.5 C 261.576,586.857 261.909,587.857 255.5,589.5C 257.783,590.135 259.449,591.468 260.5,593.5C 258.94,598.015 256.273,598.682 252.5,595.5C 254.424,595.433 256.424,595.1 258.5,594.5C 256.821,593.218 254.987,592.218 253,591.5C 252.387,589.505 252.887,587.838 254.5,586.5 Z"/></g>
<g><path style="opacity:1" fill="#ede9a7" d="M 405.5,586.5 C 407.83,588.542 408.996,591.208 409,594.5C 409.516,591.749 410.683,589.416 412.5,587.5C 413.231,590.514 412.564,593.347 410.5,596C 409.216,596.684 408.049,596.517 407,595.5C 405.624,592.407 405.124,589.407 405.5,586.5 Z"/></g>
<g><path style="opacity:1" fill="#797982" d="M 294.5,587.5 C 295.638,590.304 295.805,593.304 295,596.5C 292.726,597.811 290.56,597.811 288.5,596.5C 290.467,596.739 292.301,596.406 294,595.5C 294.497,592.854 294.664,590.187 294.5,587.5 Z"/></g>
<g><path style="opacity:1" fill="#62647b" d="M 387.5,586.5 C 389.423,590.029 390.089,594.029 389.5,598.5C 386.167,598.5 382.833,598.5 379.5,598.5C 378.92,594.351 379.586,590.684 381.5,587.5C 381.5,590.5 381.5,593.5 381.5,596.5C 383.857,596.663 386.19,596.497 388.5,596C 386.866,595.506 385.199,595.34 383.5,595.5C 383.5,594.5 383.5,593.5 383.5,592.5C 388.694,592.058 388.694,591.058 383.5,589.5C 385.332,588.943 386.665,587.943 387.5,586.5 Z"/></g>
</svg>
